<mxfile host="app.diagrams.net" modified="2024-04-26T20:29:04.806Z" agent="Mozilla/5.0 (Windows NT 10.0; Win64; x64; rv:125.0) Gecko/20100101 Firefox/125.0" etag="DGOigBJV9iA-3HLz910u" version="24.3.1" type="github">
  <diagram name="PÃ¡gina-1" id="7bwxTvgRxKWA-a-aPEQl">
    <mxGraphModel dx="220" dy="440" grid="1" gridSize="10" guides="1" tooltips="1" connect="1" arrows="1" fold="1" page="0" pageScale="1" pageWidth="827" pageHeight="1169" math="0" shadow="0">
      <root>
        <mxCell id="0" />
        <mxCell id="1" parent="0" />
        <mxCell id="VbC6678ueInt6itIrCEf-4" value="" style="edgeStyle=orthogonalEdgeStyle;rounded=0;orthogonalLoop=1;jettySize=auto;html=1;strokeWidth=3;" edge="1" parent="1" source="VbC6678ueInt6itIrCEf-2" target="VbC6678ueInt6itIrCEf-3">
          <mxGeometry relative="1" as="geometry" />
        </mxCell>
        <mxCell id="VbC6678ueInt6itIrCEf-2" value="Inicio" style="strokeWidth=2;html=1;shape=mxgraph.flowchart.start_1;whiteSpace=wrap;fontSize=24;" vertex="1" parent="1">
          <mxGeometry x="1210" y="400" width="100" height="60" as="geometry" />
        </mxCell>
        <mxCell id="VbC6678ueInt6itIrCEf-6" value="" style="edgeStyle=orthogonalEdgeStyle;rounded=0;orthogonalLoop=1;jettySize=auto;html=1;strokeWidth=3;entryX=0.5;entryY=0;entryDx=0;entryDy=0;entryPerimeter=0;" edge="1" parent="1" source="VbC6678ueInt6itIrCEf-3" target="VbC6678ueInt6itIrCEf-7">
          <mxGeometry relative="1" as="geometry">
            <mxPoint x="1260" y="660" as="targetPoint" />
          </mxGeometry>
        </mxCell>
        <mxCell id="VbC6678ueInt6itIrCEf-3" value="s1, s2, s3" style="shape=parallelogram;html=1;strokeWidth=2;perimeter=parallelogramPerimeter;whiteSpace=wrap;rounded=1;arcSize=12;size=0.23;fontSize=16;" vertex="1" parent="1">
          <mxGeometry x="1210" y="525" width="100" height="60" as="geometry" />
        </mxCell>
        <mxCell id="VbC6678ueInt6itIrCEf-10" value="" style="edgeStyle=orthogonalEdgeStyle;rounded=0;orthogonalLoop=1;jettySize=auto;html=1;strokeWidth=3;" edge="1" parent="1" source="VbC6678ueInt6itIrCEf-7" target="VbC6678ueInt6itIrCEf-9">
          <mxGeometry relative="1" as="geometry" />
        </mxCell>
        <mxCell id="VbC6678ueInt6itIrCEf-12" value="Si" style="edgeStyle=orthogonalEdgeStyle;rounded=0;orthogonalLoop=1;jettySize=auto;html=1;strokeWidth=3;fontSize=15;" edge="1" parent="1" source="VbC6678ueInt6itIrCEf-7" target="VbC6678ueInt6itIrCEf-11">
          <mxGeometry relative="1" as="geometry" />
        </mxCell>
        <mxCell id="VbC6678ueInt6itIrCEf-7" value="s1 &amp;lt; s2 AND s1 &amp;lt; s3" style="strokeWidth=2;html=1;shape=mxgraph.flowchart.decision;whiteSpace=wrap;fontSize=16;" vertex="1" parent="1">
          <mxGeometry x="1160" y="660" width="200" height="100" as="geometry" />
        </mxCell>
        <mxCell id="VbC6678ueInt6itIrCEf-24" value="Si" style="edgeStyle=orthogonalEdgeStyle;rounded=0;orthogonalLoop=1;jettySize=auto;html=1;strokeWidth=3;fontSize=15;" edge="1" parent="1" source="VbC6678ueInt6itIrCEf-9" target="VbC6678ueInt6itIrCEf-23">
          <mxGeometry relative="1" as="geometry" />
        </mxCell>
        <mxCell id="VbC6678ueInt6itIrCEf-9" value="&lt;div&gt;s2 &amp;lt; s1 AND s2 &amp;lt; s3&lt;br&gt;&lt;/div&gt;" style="strokeWidth=2;html=1;shape=mxgraph.flowchart.decision;whiteSpace=wrap;fontSize=16;" vertex="1" parent="1">
          <mxGeometry x="1160" y="840" width="200" height="100" as="geometry" />
        </mxCell>
        <mxCell id="VbC6678ueInt6itIrCEf-34" value="" style="edgeStyle=orthogonalEdgeStyle;rounded=0;orthogonalLoop=1;jettySize=auto;html=1;strokeWidth=3;" edge="1" parent="1" source="VbC6678ueInt6itIrCEf-11" target="VbC6678ueInt6itIrCEf-33">
          <mxGeometry relative="1" as="geometry" />
        </mxCell>
        <mxCell id="VbC6678ueInt6itIrCEf-11" value="Mostrar s1" style="whiteSpace=wrap;html=1;fontSize=16;strokeWidth=2;" vertex="1" parent="1">
          <mxGeometry x="1480" y="680" width="120" height="60" as="geometry" />
        </mxCell>
        <mxCell id="VbC6678ueInt6itIrCEf-15" value="" style="strokeWidth=2;html=1;shape=mxgraph.flowchart.annotation_1;align=left;pointerEvents=1;" vertex="1" parent="1">
          <mxGeometry x="1000" y="710" width="160" height="370" as="geometry" />
        </mxCell>
        <mxCell id="VbC6678ueInt6itIrCEf-19" value="No" style="endArrow=none;html=1;rounded=0;entryX=1.031;entryY=0.484;entryDx=0;entryDy=0;entryPerimeter=0;exitX=0.006;exitY=0.484;exitDx=0;exitDy=0;exitPerimeter=0;strokeWidth=3;" edge="1" parent="1" source="VbC6678ueInt6itIrCEf-15" target="VbC6678ueInt6itIrCEf-15">
          <mxGeometry width="50" height="50" relative="1" as="geometry">
            <mxPoint x="1020" y="920" as="sourcePoint" />
            <mxPoint x="1080" y="880" as="targetPoint" />
            <Array as="points" />
          </mxGeometry>
        </mxCell>
        <mxCell id="VbC6678ueInt6itIrCEf-20" value="&lt;div&gt;No&lt;/div&gt;" style="text;html=1;align=center;verticalAlign=middle;whiteSpace=wrap;rounded=0;" vertex="1" parent="1">
          <mxGeometry x="1050" y="680" width="60" height="30" as="geometry" />
        </mxCell>
        <mxCell id="VbC6678ueInt6itIrCEf-32" value="" style="edgeStyle=orthogonalEdgeStyle;rounded=0;orthogonalLoop=1;jettySize=auto;html=1;strokeWidth=3;" edge="1" parent="1" source="VbC6678ueInt6itIrCEf-23" target="VbC6678ueInt6itIrCEf-31">
          <mxGeometry relative="1" as="geometry" />
        </mxCell>
        <mxCell id="VbC6678ueInt6itIrCEf-23" value="Mostrar s2" style="whiteSpace=wrap;html=1;fontSize=16;strokeWidth=2;" vertex="1" parent="1">
          <mxGeometry x="1480" y="860" width="120" height="60" as="geometry" />
        </mxCell>
        <mxCell id="VbC6678ueInt6itIrCEf-30" value="" style="edgeStyle=orthogonalEdgeStyle;rounded=0;orthogonalLoop=1;jettySize=auto;html=1;strokeWidth=3;" edge="1" parent="1" source="VbC6678ueInt6itIrCEf-25" target="VbC6678ueInt6itIrCEf-29">
          <mxGeometry relative="1" as="geometry" />
        </mxCell>
        <mxCell id="VbC6678ueInt6itIrCEf-25" value="Mostrar s3" style="whiteSpace=wrap;html=1;fontSize=16;strokeWidth=2;" vertex="1" parent="1">
          <mxGeometry x="1160" y="1030" width="200" height="100" as="geometry" />
        </mxCell>
        <mxCell id="VbC6678ueInt6itIrCEf-29" value="Fin" style="ellipse;whiteSpace=wrap;html=1;fontSize=16;strokeWidth=2;" vertex="1" parent="1">
          <mxGeometry x="1220" y="1220" width="80" height="80" as="geometry" />
        </mxCell>
        <mxCell id="VbC6678ueInt6itIrCEf-31" value="Fin" style="ellipse;whiteSpace=wrap;html=1;fontSize=16;strokeWidth=2;" vertex="1" parent="1">
          <mxGeometry x="1700" y="850" width="80" height="80" as="geometry" />
        </mxCell>
        <mxCell id="VbC6678ueInt6itIrCEf-33" value="Fin" style="ellipse;whiteSpace=wrap;html=1;fontSize=16;strokeWidth=2;" vertex="1" parent="1">
          <mxGeometry x="1700" y="670" width="80" height="80" as="geometry" />
        </mxCell>
      </root>
    </mxGraphModel>
  </diagram>
</mxfile>
